HIERARCHY
ROOT Hips
{
	OFFSET 0.000000 0.000000 0.000000
	CHANNELS 6 Xposition Yposition Zposition Xrotation Yrotation Zrotation
	JOINT LeftUpLeg_virtual
	{
		OFFSET 0.000000 0.000000 0.000000
		CHANNELS 3 Xrotation Yrotation Zrotation
		JOINT LeftUpLeg
		{
			OFFSET 13.026900 -6.336304 -1.092800
			CHANNELS 3 Xrotation Yrotation Zrotation
			JOINT LeftLeg
			{
				OFFSET 0.524474 -46.096886 9.782700
				CHANNELS 3 Xrotation Yrotation Zrotation
				JOINT LeftFoot
				{
					OFFSET -0.524474 -53.427422 -12.948200
					CHANNELS 3 Xrotation Yrotation Zrotation
					JOINT LeftToeBase
					{
						OFFSET 0.192200 -14.009700 16.364100
						CHANNELS 3 Xrotation Yrotation Zrotation
						JOINT LeftToe_End
						{
							OFFSET -1.784700 -0.561700 9.474800
							CHANNELS 3 Xrotation Yrotation Zrotation
							End Site
							{
								OFFSET 0 0 0
							}
						}
					}
				}
			}
		}
	}
	JOINT RightUpLeg_virtual
	{
		OFFSET 0.000000 0.000000 0.000000
		CHANNELS 3 Xrotation Yrotation Zrotation
		JOINT RightUpLeg
		{
			OFFSET -12.883000 -6.336304 -1.092800
			CHANNELS 3 Xrotation Yrotation Zrotation
			JOINT RightLeg
			{
				OFFSET -0.524587 -46.096825 9.782800
				CHANNELS 3 Xrotation Yrotation Zrotation
				JOINT RightFoot
				{
					OFFSET 0.524587 -53.427383 -12.948300
					CHANNELS 3 Xrotation Yrotation Zrotation
					JOINT RightToeBase
					{
						OFFSET -0.192200 -14.009700 16.364100
						CHANNELS 3 Xrotation Yrotation Zrotation
						JOINT RightToe_End
						{
							OFFSET 1.784700 -0.561700 9.474800
							CHANNELS 3 Xrotation Yrotation Zrotation
							End Site
							{
								OFFSET 0 0 0
							}
						}
					}
				}
			}
		}
	}
	JOINT Spine_virtual
	{
		OFFSET 0.000000 0.000000 0.000000
		CHANNELS 3 Xrotation Yrotation Zrotation
		JOINT Spine
		{
			OFFSET 0.072000 7.257294 -0.789700
			CHANNELS 3 Xrotation Yrotation Zrotation
			JOINT Spine1
			{
				OFFSET 0.000000 12.508769 -0.658067
				CHANNELS 3 Xrotation Yrotation Zrotation
				JOINT Spine1_split
				{
					OFFSET 0.000000 12.508769 -0.658067
					CHANNELS 3 Xrotation Yrotation Zrotation
					JOINT Spine2
					{
						OFFSET 0.000000 12.508769 -0.658067
						CHANNELS 3 Xrotation Yrotation Zrotation
						JOINT Neck_virtual
						{
							OFFSET 0.000000 0.000000 0.000000
							CHANNELS 3 Xrotation Yrotation Zrotation
							JOINT Neck
							{
								OFFSET 0.000000 14.033295 7.520400
								CHANNELS 3 Xrotation Yrotation Zrotation
								JOINT Head
								{
									OFFSET 0.000000 8.198502 5.703100
									CHANNELS 3 Xrotation Yrotation Zrotation
									JOINT HeadTop_End
									{
										OFFSET 0.000000 17.760803 13.332701
										CHANNELS 3 Xrotation Yrotation Zrotation
										End Site
										{
											OFFSET 0 0 0
										}
									}
								}
							}
						}
						JOINT LeftShoulder_virtual
						{
							OFFSET 0.000000 0.000000 0.000000
							CHANNELS 3 Xrotation Yrotation Zrotation
							JOINT LeftShoulder
							{
								OFFSET 6.292450 5.785301 -0.669000
								CHANNELS 3 Xrotation Yrotation Zrotation
								JOINT LeftShoulder_split
								{
									OFFSET 6.292450 5.785301 -0.669000
									CHANNELS 3 Xrotation Yrotation Zrotation
									JOINT LeftArm
									{
										OFFSET 13.907140 -6.093903 1.965100
										CHANNELS 3 Xrotation Yrotation Zrotation
										JOINT LeftForeArm
										{
											OFFSET 34.140198 0.000000 0.000000
											CHANNELS 3 Xrotation Yrotation Zrotation
											JOINT LeftHand
											{
												OFFSET 40.960209 0.000000 0.000000
												CHANNELS 3 Xrotation Yrotation Zrotation
												End Site
												{
													OFFSET 0 0 0
												}
											}
										}
									}
								}
							}
						}
						JOINT RightShoulder_virtual
						{
							OFFSET 0.000000 0.000000 0.000000
							CHANNELS 3 Xrotation Yrotation Zrotation
							JOINT RightShoulder
							{
								OFFSET -6.292450 5.785301 -0.669000
								CHANNELS 3 Xrotation Yrotation Zrotation
								JOINT RightShoulder_split
								{
									OFFSET -6.292450 5.785301 -0.669000
									CHANNELS 3 Xrotation Yrotation Zrotation
									JOINT RightArm
									{
										OFFSET -13.907140 -6.093903 1.965100
										CHANNELS 3 Xrotation Yrotation Zrotation
										JOINT RightForeArm
										{
											OFFSET -34.140198 0.000000 0.000000
											CHANNELS 3 Xrotation Yrotation Zrotation
											JOINT RightHand
											{
												OFFSET -40.960209 0.000000 0.000000
												CHANNELS 3 Xrotation Yrotation Zrotation
												End Site
												{
													OFFSET 0 0 0
												}
											}
										}
									}
								}
							}
						}
					}
				}
			}
		}
	}
}
MOTION
Frames: 10
Frame Time: 0.03333333
2.387028 91.556786 1.346199 0.000000 0.000000 0.000000 -1.071931 -48.226367 4.210795 -39.103410 7.614577 22.441223 54.374460 -8.681081 -0.758767 -13.715869 -9.779990 -9.330076 -2.966610 -0.803854 0.167647 0.000000 0.000000 0.000000 -2.653140 -47.287121 4.453735 -21.461764 -12.468668 -32.650152 59.476447 1.085437 -4.856181 -22.247610 -12.790075 28.065065 -2.554554 0.078208 0.898079 0.000000 0.000000 0.000000 -0.701058 -47.380059 5.112886 8.745559 11.389259 -3.351177 0.792070 4.018126 -1.824478 0.495108 -1.764817 1.228445 0.000000 0.000000 0.000000 2.071860 4.020324 -1.792044 -8.551124 11.795316 4.018670 6.920255 16.626810 1.263508 0.000000 0.000000 0.000000 1.585619 4.060807 -1.344217 0.777418 0.183857 -4.304801 -0.720801 -3.816748 1.481665 5.797754 1.158005 -39.294314 178.291242 -49.279767 178.559559 0.000000 0.000000 0.000000 1.348238 3.652938 -1.637242 1.355557 13.601161 -4.626503 -6.886145 -1.340109 2.311847 -60.034801 21.198233 64.536490 -165.970769 79.381401 164.689426 0.000000 0.000000 0.000000 
2.769516 91.956619 1.474140 0.000000 0.000000 0.000000 -0.957462 -53.040674 3.881406 -34.746460 8.700067 22.798726 53.439564 -8.049036 -2.056665 -17.171232 -5.859274 -8.748076 -3.352207 -0.859794 0.407620 0.000000 0.000000 0.000000 -2.431463 -51.772226 4.275790 -25.510745 -6.931830 -32.499539 61.108637 2.397904 -5.626879 -21.198766 -10.666788 27.848665 -1.896995 0.175686 0.842937 0.000000 0.000000 0.000000 -0.136245 -51.317349 5.211559 9.020707 10.924711 -2.495061 1.069525 3.895986 -1.758485 0.504589 -1.645168 1.083778 0.000000 0.000000 0.000000 2.387737 3.931496 -1.681987 -8.666328 12.943897 3.663851 5.963391 19.655971 -0.538673 0.000000 0.000000 0.000000 1.586800 3.976914 -1.258077 1.002773 0.714940 -2.412737 -0.091873 -4.297968 0.602041 1.904362 5.622987 -34.257278 178.680658 -53.935415 178.831291 0.000000 0.000000 0.000000 1.342300 3.558888 -1.484305 1.104385 11.119819 -2.574752 -6.225968 -1.500087 2.461816 -61.103480 23.823384 69.849865 -172.129223 75.007601 170.750426 0.000000 0.000000 0.000000 
3.055610 92.143410 1.396065 0.000000 0.000000 0.000000 -0.923784 -57.882786 3.066283 -31.077060 8.664671 23.102521 53.609567 -7.380074 -2.674632 -20.686947 -2.178381 -8.056930 -3.462573 -0.874425 0.404279 0.000000 0.000000 0.000000 -2.332554 -55.990636 3.533193 -28.624249 -2.495092 -31.642627 61.041291 3.536515 -6.194838 -20.027858 -8.634780 27.677197 -1.554736 0.322134 0.741691 0.000000 0.000000 0.000000 0.590703 -54.921070 4.822190 9.213594 9.970943 -1.827847 1.345969 3.332829 -1.690670 0.793056 -1.567370 0.937483 0.000000 0.000000 0.000000 2.669556 3.295142 -1.534131 -8.749477 14.378286 3.326630 5.316545 22.785279 -2.532020 0.000000 0.000000 0.000000 1.669678 3.349251 -1.208280 1.134424 1.091618 -0.156517 -0.153033 -2.903968 -0.206859 -6.626480 6.137108 -26.692009 178.583875 -66.266167 178.812344 0.000000 0.000000 0.000000 1.444507 2.982385 -1.442687 0.897851 9.534245 -0.892669 -5.741848 -2.228744 2.332402 -61.564436 26.483819 74.300382 -175.988375 71.017554 174.380248 0.000000 0.000000 0.000000 
3.215945 92.196838 1.033195 0.000000 0.000000 0.000000 -1.297358 -61.449313 1.696423 -29.043737 7.288081 23.477657 55.009111 -7.207672 -2.383873 -23.274148 0.540552 -8.023084 -3.129624 -0.824402 0.161787 0.000000 0.000000 0.000000 -2.657455 -59.021536 2.119272 -30.062203 0.000939 -30.436115 59.489083 4.189700 -6.416418 -19.160410 -7.146493 27.406768 -1.617444 0.488410 0.679299 0.000000 0.000000 0.000000 1.022766 -57.479225 3.846051 9.302950 8.489800 -1.355471 1.520795 2.324146 -1.665679 1.149338 -1.339705 0.703176 0.000000 0.000000 0.000000 2.785541 2.121166 -1.473367 -8.649195 15.914416 3.107850 5.452329 25.700492 -4.574183 0.000000 0.000000 0.000000 1.996459 2.164451 -1.277703 1.213326 1.186169 1.968389 -1.117740 -0.180656 -0.829323 -17.436559 1.743786 -19.231275 171.821236 -85.993612 172.156790 0.000000 0.000000 0.000000 1.632069 1.895508 -1.536701 0.761832 8.838193 0.379708 -5.890096 -2.975860 1.812900 -59.885412 29.242120 77.421711 -178.458117 67.069760 176.509655 0.000000 0.000000 0.000000 
3.224348 92.148026 0.586143 0.000000 0.000000 0.000000 -2.051622 -62.727166 -0.085062 -28.972471 5.091444 23.806285 57.132610 -7.595596 -1.273481 -24.066054 1.867517 -9.126957 -2.809970 -0.694603 -0.150252 0.000000 0.000000 0.000000 -3.313775 -60.256134 0.298210 -29.529466 0.190965 -29.284084 57.147575 4.145857 -6.314154 -18.924122 -6.542411 26.985579 -2.045336 0.634514 0.695071 0.000000 0.000000 0.000000 1.130405 -58.633998 2.522625 9.243374 6.690866 -1.109270 1.585117 1.106205 -1.743743 1.222561 -1.144556 0.235922 0.000000 0.000000 0.000000 2.707626 0.719063 -1.573770 -8.457503 17.199834 3.039353 6.237449 27.913549 -6.275835 0.000000 0.000000 0.000000 2.529506 0.690054 -1.436739 1.251569 1.172374 3.431940 -2.646405 2.534359 -1.056354 -26.564226 -5.647113 -15.008234 2.825743 -72.473430 3.053740 0.000000 0.000000 0.000000 1.931882 0.575626 -1.764347 0.747609 9.155268 1.154440 -6.692634 -3.072278 1.565936 -55.051796 32.129254 78.205167 -179.527356 62.646857 177.257247 0.000000 0.000000 0.000000 
3.126577 92.017715 0.270554 0.000000 0.000000 0.000000 -2.512063 -61.489748 -1.504680 -30.703797 2.878798 23.789622 59.200938 -8.130740 0.256860 -23.190311 1.820755 -10.851161 -2.908987 -0.537727 -0.364095 0.000000 0.000000 0.000000 -3.948724 -59.322467 -1.352274 -27.223353 -1.692929 -28.431200 54.819505 3.433705 -6.013775 -19.548399 -6.934904 26.571353 -2.432720 0.744561 0.751696 0.000000 0.000000 0.000000 0.916667 -57.915824 1.265309 9.108524 4.981287 -1.101620 1.578473 0.095951 -1.923775 1.003875 -0.677426 -0.084531 0.000000 0.000000 0.000000 2.436836 -0.453832 -1.808469 -8.285189 17.815840 3.084661 7.282039 28.607020 -7.105454 0.000000 0.000000 0.000000 3.139106 -0.614727 -1.643612 1.202872 1.412813 4.149949 -4.377322 3.934676 -1.768326 -32.347530 -12.790556 -15.611618 2.459153 -58.115607 2.347466 0.000000 0.000000 0.000000 2.301853 -0.577669 -2.075896 0.871834 10.518713 1.122733 -7.536404 -2.904944 1.966500 -46.912564 34.741925 75.721396 -179.662129 57.454336 177.163345 0.000000 0.000000 0.000000 
2.884301 91.784958 0.160122 0.000000 0.000000 0.000000 -2.422300 -58.052039 -2.061155 -33.843577 1.295365 23.206560 60.711584 -8.292097 1.745948 -21.296318 0.506257 -12.136537 -3.532889 -0.386208 -0.366458 0.000000 0.000000 0.000000 -3.920709 -56.241861 -2.075205 -23.745207 -5.169462 -27.845962 53.097300 2.257386 -5.643804 -21.053829 -8.158799 26.307800 -2.533668 0.827613 0.768022 0.000000 0.000000 0.000000 0.537145 -55.371698 0.419300 9.059154 3.819671 -1.373022 1.585694 -0.349690 -2.140589 0.872224 -0.088872 -0.191500 0.000000 0.000000 0.000000 2.105302 -0.975932 -2.114758 -8.349538 17.479697 3.109123 8.171016 27.350239 -6.667462 0.000000 0.000000 0.000000 3.591739 -1.215403 -1.828976 0.988262 1.963121 3.865793 -4.655930 3.814249 -2.767671 -34.407419 -17.558454 -20.654786 3.148733 -55.850173 2.575790 0.000000 0.000000 0.000000 2.643693 -1.123578 -2.348984 1.175709 12.702685 0.357443 -8.175857 -2.505971 2.981667 -37.052803 35.882317 69.601636 -179.202690 52.364526 176.794502 0.000000 0.000000 0.000000 
2.591180 91.327339 0.473778 0.000000 0.000000 0.000000 -1.760887 -53.458023 -1.720553 -38.022505 0.697158 22.201122 61.653222 -7.880507 2.884843 -18.815909 -1.664572 -12.396581 -4.034903 -0.251780 -0.279603 0.000000 0.000000 0.000000 -3.232924 -51.593559 -1.799007 -19.879583 -9.597299 -27.464793 52.216810 0.977383 -5.301649 -23.125634 -9.892164 26.350195 -2.374562 0.892850 0.664889 0.000000 0.000000 0.000000 0.294017 -51.332994 0.222929 9.155887 3.603294 -1.927082 1.667004 0.043452 -2.334277 0.890980 -0.002253 -0.037390 0.000000 0.000000 0.000000 1.912294 -0.594908 -2.336055 -8.780450 16.119106 2.993024 8.522294 23.857762 -4.900149 0.000000 0.000000 0.000000 3.702578 -0.804269 -1.930008 0.628127 2.620956 2.798486 -3.947425 2.300898 -3.905542 -32.173415 -19.684206 -28.366341 4.229228 -65.158960 3.495740 0.000000 0.000000 0.000000 2.928596 -0.764146 -2.516317 1.652076 15.550211 -1.337585 -8.192528 -2.036384 4.093592 -28.547486 34.439474 60.897400 -178.524206 49.629876 176.558901 0.000000 0.000000 0.000000 
2.301673 90.703857 1.094200 0.000000 0.000000 0.000000 -0.838297 -48.496829 -0.703679 -42.830624 1.004786 21.068371 62.372154 -7.065146 3.639105 -16.078670 -4.271416 -11.554490 -3.885541 -0.165951 -0.218812 0.000000 0.000000 0.000000 -2.303418 -46.248375 -0.838596 -16.198277 -14.296272 -27.168520 51.924942 -0.185496 -4.983372 -25.305347 -11.817405 26.662501 -1.944474 0.945661 0.451852 0.000000 0.000000 0.000000 0.113017 -46.407881 0.545414 9.441178 4.555235 -2.702047 1.813266 1.255707 -2.404795 0.911138 -0.061890 0.513562 0.000000 0.000000 0.000000 1.881668 0.640211 -2.387210 -9.620062 13.948008 2.656612 8.458483 18.366973 -2.216660 0.000000 0.000000 0.000000 3.442733 0.575802 -1.946121 0.260340 3.014407 1.292118 -2.178053 0.142916 -4.460114 -26.457315 -20.626382 -37.084522 8.075013 -80.439575 7.597067 0.000000 0.000000 0.000000 3.085832 0.491368 -2.525178 2.267149 18.665789 -3.745235 -7.664099 -1.576940 4.695236 -24.587132 30.723844 51.664213 -177.646322 51.812787 176.367478 0.000000 0.000000 0.000000 
2.067320 89.954460 1.647732 0.000000 0.000000 0.000000 0.026110 -43.862539 0.575231 -47.474019 1.726150 19.938075 62.896145 -6.256919 4.239606 -13.279689 -7.042338 -10.202663 -3.458482 -0.131140 -0.062230 0.000000 0.000000 0.000000 -1.449994 -41.098286 0.387634 -13.148229 -18.680152 -26.936079 51.766495 -1.056537 -4.679001 -26.972402 -13.562159 27.178643 -1.631780 0.975213 0.183880 0.000000 0.000000 0.000000 0.105119 -41.559898 1.155814 9.872383 6.562265 -3.606508 2.020611 3.042637 -2.355763 1.000235 -0.301784 0.937008 0.000000 0.000000 0.000000 2.016403 2.459350 -2.270807 -10.783212 11.291442 2.103026 8.293369 11.755574 0.724746 0.000000 0.000000 0.000000 2.919007 2.618028 -1.889966 0.003621 2.536169 -0.532742 0.190260 -2.003035 -3.381859 -17.353397 -21.750462 -44.675496 170.055905 -85.951941 170.306778 0.000000 0.000000 0.000000 3.146729 2.434501 -2.377967 2.947616 21.670896 -6.322973 -6.997734 -0.789128 4.281960 -26.388021 26.272230 43.363013 -176.192325 61.320537 175.757856 0.000000 0.000000 0.000000 
